<?xml version="1.0" standalone="no"?>
<!DOCTYPE svg PUBLIC "-//W3C//DTD SVG 20010904//EN"
 "http://www.w3.org/TR/2001/REC-SVG-20010904/DTD/svg10.dtd">
<svg version="1.0" xmlns="http://www.w3.org/2000/svg"
 width="300.000000pt" height="300.000000pt" viewBox="0 0 300.000000 300.000000"
 preserveAspectRatio="xMidYMid meet">
<metadata>
Created by potrace 1.10, written by Peter Selinger 2001-2011
</metadata>
<g transform="translate(0.000000,300.000000) scale(0.100000,-0.100000)"
fill="#ff9900" stroke="none">
<path d="M1406 2749 c-14 -11 -26 -24 -26 -29 0 -15 39 -18 51 -4 22 26 79 11
79 -21 0 -6 -15 -19 -32 -30 -37 -21 -59 -46 -52 -57 9 -15 33 -8 78 23 39 26
46 35 46 64 0 42 -38 75 -85 75 -18 0 -44 -9 -59 -21z"/>
<path d="M1060 2606 c-46 -18 -290 -256 -290 -283 0 -22 96 -118 193 -192 82
-62 81 -45 0 21 -106 86 -173 152 -173 172 0 10 16 32 35 49 87 80 195 188
195 196 0 5 15 13 33 17 40 10 39 9 57 17 8 3 26 8 40 10 16 3 10 5 -15 5 -22
1 -56 -5 -75 -12z"/>
<path d="M1165 2590 c-11 -11 -46 -43 -77 -71 l-58 -52 0 -112 c0 -110 1 -113
26 -129 14 -10 37 -16 52 -14 25 3 27 6 30 61 3 50 1 57 -16 57 -27 0 -55 34
-48 58 11 34 38 36 62 7 17 -22 22 -24 27 -11 9 22 34 20 40 -4 6 -24 52 -28
65 -5 4 9 23 24 42 34 39 20 51 41 23 40 -11 0 -13 -2 -5 -6 9 -3 4 -10 -14
-19 -33 -18 -85 0 -77 25 2 9 -5 4 -17 -11 -21 -27 -50 -38 -50 -20 0 15 34
38 83 56 26 10 54 27 62 39 14 20 14 20 25 -9 7 -16 14 -53 17 -81 5 -48 4
-53 -14 -53 -10 0 -25 6 -32 13 -11 10 -13 9 -9 -3 3 -8 16 -16 30 -18 24 -3
25 -6 18 -38 -12 -53 -28 -67 -72 -61 -35 5 -38 3 -38 -19 0 -20 5 -24 33 -24
33 0 70 -20 97 -53 13 -16 15 0 12 154 -4 191 -9 210 -67 255 -47 36 -121 42
-150 14z m118 -26 l31 -17 -33 -27 c-18 -15 -45 -30 -59 -33 -15 -3 -38 -16
-51 -29 -19 -17 -34 -23 -58 -20 -20 3 -33 0 -33 -7 0 -6 -7 -11 -15 -11 -34
0 29 91 80 116 19 9 35 20 35 24 0 9 23 17 53 19 10 0 32 -6 50 -15z m-19
-153 c10 -16 -5 -41 -24 -41 -23 0 -34 16 -26 35 6 16 42 20 50 6z m-154 -135
c0 -12 -4 -27 -9 -35 -16 -25 -51 23 -51 69 l0 40 30 -27 c17 -14 30 -36 30
-47z m247 -35 c-1 -12 -7 -17 -19 -13 -14 3 -16 7 -7 18 16 20 28 17 26 -5z"/>
<path d="M1230 2390 c0 -5 5 -10 10 -10 6 0 10 5 10 10 0 6 -4 10 -10 10 -5 0
-10 -4 -10 -10z"/>
<path d="M1690 2599 c-23 -10 -24 -11 -7 -23 9 -7 27 -11 40 -9 26 5 56 -22
41 -37 -5 -4 -25 -12 -44 -17 -20 -5 -35 -16 -35 -24 0 -18 60 -14 93 7 37 24
27 75 -19 99 -32 17 -35 17 -69 4z"/>
<path d="M1410 2555 c0 -20 5 -25 25 -25 20 0 25 5 25 25 0 20 -5 25 -25 25
-20 0 -25 -5 -25 -25z"/>
<path d="M2093 2323 l-323 -186 0 -100 0 -99 -75 -80 c-41 -44 -75 -83 -75
-87 0 -4 14 -15 30 -24 23 -14 41 -17 75 -11 l45 6 2 -293 3 -294 26 -9 c22
-8 63 13 335 169 170 98 317 185 327 193 16 14 17 50 17 498 0 468 -1 484 -19
494 -11 5 -26 10 -33 10 -7 0 -158 -84 -335 -187z m336 135 c-20 -16 -21 -18
-3 -9 l21 10 1 -467 1 -467 -141 -80 c-77 -44 -145 -80 -150 -80 -5 0 -12 -5
-16 -11 -4 -6 -14 -13 -22 -17 -8 -3 -78 -43 -155 -90 l-140 -84 -3 289 c-2
277 -3 288 -22 288 -10 0 -22 5 -25 10 -3 6 -19 10 -36 10 -33 0 -37 15 -11
39 9 9 33 35 52 57 19 22 4 9 -34 -28 -67 -67 -86 -79 -86 -57 0 22 123 154
142 152 16 -3 18 6 18 90 0 53 -5 98 -11 104 -8 8 5 19 43 40 57 32 154 88
197 114 14 9 53 31 86 49 33 18 87 50 120 70 33 20 67 39 75 43 8 4 33 17 55
30 48 29 81 25 44 -5z"/>
<path d="M2220 2339 c-96 -56 -179 -106 -185 -111 -11 -12 96 46 200 107 39
23 91 54 118 69 39 23 56 36 44 36 -1 0 -81 -45 -177 -101z"/>
<path d="M2175 2233 c-11 -3 -39 -19 -62 -37 -97 -73 -143 -225 -90 -303 27
-40 56 -50 107 -34 123 37 214 260 142 347 -19 23 -64 35 -97 27z m85 -40 c18
-23 21 -37 17 -83 -2 -30 -10 -68 -17 -85 -11 -26 -14 -27 -18 -10 -2 11 -10
27 -17 35 -8 8 -15 33 -17 54 -6 71 -68 76 -106 8 -20 -37 -26 -82 -10 -82 12
0 9 -17 -5 -32 -21 -21 -37 -54 -37 -77 0 -30 17 -26 25 6 10 43 41 78 86 98
l41 19 19 -23 c11 -13 19 -27 19 -32 0 -21 -75 -89 -115 -104 -40 -16 -45 -16
-69 0 -52 34 -52 120 1 217 58 107 156 150 203 91z m-72 -84 c6 -49 -66 -106
-82 -64 -7 20 2 45 28 73 25 28 50 25 54 -9z"/>
<path d="M1953 2184 c-35 -19 -63 -37 -63 -40 0 -6 109 53 125 68 17 15 0 8
-62 -28z"/>
<path d="M1854 2124 c-18 -14 -18 -15 4 -4 12 6 22 13 22 15 0 8 -5 6 -26 -11z"/>
<path d="M2275 1907 c-11 -7 -39 -24 -62 -39 -23 -16 -52 -32 -65 -38 -13 -6
-41 -22 -63 -35 -22 -14 -47 -28 -55 -32 -47 -20 -67 -77 -36 -105 12 -11 9
-18 -20 -44 -37 -35 -45 -73 -18 -95 18 -15 26 -11 233 107 124 70 171 111
171 148 0 17 -5 26 -16 26 -12 0 -15 6 -9 23 16 51 17 68 5 82 -15 18 -37 18
-65 2z m55 -27 c0 -25 -37 -63 -55 -56 -8 3 -16 -3 -19 -12 -2 -9 -4 1 -3 22
2 46 26 63 28 19 2 -26 2 -27 6 -3 7 41 12 50 28 50 8 0 15 -9 15 -20z m-90
-55 c0 -24 -5 -35 -15 -35 -18 0 -20 41 -3 58 17 17 18 16 18 -23z m-52 -56
c-22 -15 -28 -10 -28 24 0 24 3 28 10 17 8 -12 11 -11 18 10 7 24 7 23 10 -9
2 -20 -2 -37 -10 -42z m-48 21 c-11 -7 -12 -10 -2 -10 8 0 12 -9 10 -22 -2
-13 -6 -21 -9 -18 -4 3 -16 -3 -27 -13 -11 -10 -28 -20 -37 -21 -9 -1 -20 -8
-24 -15 -6 -9 -10 -7 -14 8 -5 21 -27 30 -27 10 0 -5 5 -7 10 -4 6 3 10 1 10
-4 0 -6 -5 -11 -11 -11 -5 0 -8 -4 -4 -9 3 -5 1 -12 -5 -16 -6 -4 -10 8 -10
28 0 34 23 57 35 37 11 -18 23 -10 17 12 -3 14 -2 19 6 14 7 -4 12 -16 12 -27
0 -16 2 -18 14 -7 9 8 10 15 3 19 -12 9 -2 39 14 39 8 0 8 -4 -1 -15 -11 -13
-8 -15 16 -14 16 0 23 3 17 6 -7 2 -13 10 -13 17 0 15 22 38 29 30 3 -3 -1 -9
-9 -14z m188 -27 c-3 -24 -25 -40 -178 -129 -96 -56 -178 -100 -182 -98 -3 2
-3 15 0 29 6 19 46 48 177 124 94 55 174 100 178 100 5 1 7 -11 5 -26z"/>
<path d="M2300 1864 c0 -8 5 -12 10 -9 6 3 10 10 10 16 0 5 -4 9 -10 9 -5 0
-10 -7 -10 -16z"/>
<path d="M2222 1820 c0 -14 2 -19 5 -12 2 6 2 18 0 25 -3 6 -5 1 -5 -13z"/>
<path d="M2195 1570 c-35 -22 -74 -44 -115 -66 -36 -18 -50 -42 -50 -82 0 -51
22 -58 82 -27 67 34 148 85 149 94 8 62 -1 102 -23 100 -7 0 -26 -9 -43 -19z
m53 -37 c-3 -40 -18 -53 -141 -122 l-58 -33 3 43 c3 43 4 45 88 96 47 28 91
52 98 52 9 1 12 -10 10 -36z"/>
<path d="M1482 2467 c-12 -13 -22 -26 -22 -30 0 -14 38 -7 44 8 7 18 46 20 46
3 0 -7 -7 -22 -15 -32 -18 -24 -19 -46 -2 -46 15 0 47 55 47 80 0 41 -65 52
-98 17z"/>
<path d="M1647 2456 c-9 -23 18 -39 34 -20 11 13 10 17 -2 25 -20 12 -26 11
-32 -5z"/>
<path d="M984 2447 c-5 -7 -19 -27 -29 -44 -11 -18 -22 -33 -26 -33 -4 0 -10
-12 -14 -27 -3 -15 -14 -33 -23 -40 -19 -14 -5 -17 17 -4 11 7 21 3 36 -14 12
-12 33 -26 46 -29 l24 -7 -23 20 c-13 11 -35 29 -50 39 l-26 19 31 39 c44 57
67 94 57 94 -5 -1 -14 -6 -20 -13z"/>
<path d="M1320 2390 c0 -5 5 -10 10 -10 6 0 10 5 10 10 0 6 -4 10 -10 10 -5 0
-10 -4 -10 -10z"/>
<path d="M1285 2350 c-3 -5 -1 -10 4 -10 6 0 11 5 11 10 0 6 -2 10 -4 10 -3 0
-8 -4 -11 -10z"/>
<path d="M1527 2354 c-14 -15 -6 -34 14 -34 14 0 19 5 17 17 -3 18 -20 27 -31
17z"/>
<path d="M1250 2310 c0 -5 5 -10 10 -10 6 0 10 5 10 10 0 6 -4 10 -10 10 -5 0
-10 -4 -10 -10z"/>
<path d="M1184 2276 c11 -9 27 -16 35 -15 14 0 14 1 1 6 -8 3 -24 10 -35 15
-20 9 -20 9 -1 -6z"/>
<path d="M1160 2186 c0 -2 8 -10 18 -17 15 -13 16 -12 3 4 -13 16 -21 21 -21
13z"/>
<path d="M1375 2130 c-3 -6 1 -13 9 -16 9 -3 13 -11 9 -17 -3 -5 -1 -7 4 -4
14 9 24 -17 17 -40 -5 -14 -4 -15 4 -5 11 16 12 15 72 -67 22 -29 40 -59 40
-67 0 -8 5 -14 10 -14 12 0 12 2 0 35 -10 26 -132 189 -150 200 -5 3 -11 1
-15 -5z"/>
<path d="M1027 2003 c1 -72 3 -78 24 -81 21 -4 21 -1 15 46 -7 56 -25 112 -34
112 -4 0 -6 -35 -5 -77z"/>
<path d="M1141 1986 c22 -48 86 -70 124 -42 18 13 15 14 -28 9 -43 -5 -49 -3
-77 27 -30 32 -31 32 -19 6z"/>
<path d="M1373 1975 c-19 -13 -21 -23 -18 -96 5 -113 15 -112 15 1 l0 94 40
-39 c46 -45 55 -34 11 13 -16 16 -27 33 -24 36 12 11 -3 6 -24 -9z"/>
<path d="M1070 1891 c0 -10 -11 -43 -25 -72 -13 -29 -22 -55 -20 -58 7 -6 10
-2 42 65 28 59 31 84 12 84 -5 0 -9 -9 -9 -19z"/>
<path d="M1460 1885 c-44 -14 -46 -16 -69 -85 -15 -44 -32 -76 -45 -83 -12 -7
-64 -12 -126 -12 -87 0 -113 4 -152 22 l-46 21 -11 -43 c-14 -55 -14 -217 -1
-358 9 -91 8 -115 -5 -154 -20 -59 -29 -181 -18 -258 7 -55 10 -60 38 -65 17
-3 41 -4 55 0 23 5 27 15 47 115 12 61 32 173 43 250 11 77 22 152 25 168 2
15 0 27 -5 27 -13 0 -26 -58 -40 -170 -6 -52 -18 -124 -25 -160 -8 -36 -19
-96 -26 -133 -12 -72 -22 -83 -64 -73 -24 6 -24 7 -24 120 0 70 6 137 15 173
11 44 13 82 8 163 -11 153 -9 339 4 352 8 8 19 8 39 -1 37 -18 189 -26 235
-13 l37 10 5 -41 c22 -165 8 -682 -18 -699 -25 -17 -57 -8 -67 20 -14 36 -18
169 -6 209 8 24 4 55 -18 141 -25 104 -26 114 -14 186 l12 76 42 19 c41 18 67
41 46 41 -5 0 -12 -4 -15 -9 -3 -4 -26 -14 -51 -21 -35 -10 -45 -17 -46 -34 0
-11 -4 -48 -8 -81 -6 -46 -3 -86 15 -174 16 -80 20 -120 13 -138 -12 -33 -10
-146 4 -208 l12 -50 45 -3 c25 -1 50 1 56 5 20 13 36 284 33 517 l-4 218 60
19 c74 23 94 48 95 113 0 51 -11 57 -16 9 -6 -56 -15 -74 -46 -93 -21 -13 -41
-17 -62 -13 -17 3 -28 2 -24 -2 7 -8 -20 -41 -27 -33 -6 6 53 169 66 185 12
13 68 28 76 19 12 -12 -29 -76 -52 -82 -13 -3 -31 -14 -40 -24 -13 -14 -6 -13
34 7 40 19 54 32 69 66 28 62 22 66 -58 42z"/>
<path d="M730 1630 c-9 -6 -10 -10 -3 -10 6 0 15 5 18 10 8 12 4 12 -15 0z"/>
<path d="M680 1610 c-9 -6 -10 -10 -3 -10 6 0 15 5 18 10 8 12 4 12 -15 0z"/>
<path d="M630 1590 c-8 -5 -10 -10 -5 -10 6 0 17 5 25 10 8 5 11 10 5 10 -5 0
-17 -5 -25 -10z"/>
<path d="M590 1570 c-9 -6 -10 -10 -3 -10 6 0 15 5 18 10 8 12 4 12 -15 0z"/>
<path d="M550 1550 c-9 -6 -10 -10 -3 -10 6 0 15 5 18 10 8 12 4 12 -15 0z"/>
<path d="M331 1534 c-19 -14 -22 -23 -18 -51 7 -43 92 -163 116 -163 28 0 41
-21 41 -70 0 -25 5 -52 10 -60 15 -23 12 34 -5 108 -16 68 -64 170 -89 191 -9
8 -16 18 -16 24 0 20 43 -29 67 -77 37 -73 50 -116 68 -219 17 -102 12 -137
-25 -157 -29 -15 -36 -7 -44 46 -6 49 -43 162 -58 179 -13 15 -9 25 10 25 12
0 2 14 -32 45 -33 31 -58 45 -77 45 -35 0 -47 -31 -25 -65 22 -34 20 -56 -9
-95 -32 -44 -32 -57 6 -96 31 -32 31 -34 20 -79 -13 -53 2 -94 42 -112 20 -9
30 -7 64 15 45 29 45 34 22 159 l-10 52 -60 7 c-32 4 -59 11 -59 15 0 11 12
11 68 0 40 -8 42 -7 36 13 -8 27 -49 104 -70 134 -10 13 -12 22 -5 22 14 0 65
-89 91 -158 11 -29 25 -85 31 -125 7 -39 13 -73 14 -75 2 -2 23 11 49 29 39
28 46 38 52 77 10 69 -2 232 -20 277 -28 67 -66 113 -110 135 -51 24 -46 24
-75 4z m85 -128 c37 -76 36 -98 -2 -51 -14 17 -29 36 -35 43 -21 26 -39 67
-39 91 0 24 0 24 21 5 12 -10 37 -50 55 -88z m91 -68 c-3 -8 -6 -5 -6 6 -1 11
2 17 5 13 3 -3 4 -12 1 -19z m-219 -13 c-3 -3 -9 2 -12 12 -6 14 -5 15 5 6 7
-7 10 -15 7 -18z m50 -73 l11 -33 -32 2 c-17 2 -40 -2 -50 -7 -17 -10 -17 -11
1 -27 10 -9 37 -18 60 -19 40 -1 43 -3 53 -40 5 -22 9 -59 7 -84 -2 -37 -8
-48 -31 -62 -21 -13 -31 -14 -45 -6 -14 9 -17 25 -16 87 1 69 -1 76 -22 88
-13 7 -25 16 -25 21 -1 4 -2 14 -3 21 -1 6 8 26 20 42 12 17 26 43 29 58 7 26
8 27 20 10 6 -10 17 -33 23 -51z"/>
<path d="M510 1530 c-9 -6 -10 -10 -3 -10 6 0 15 5 18 10 8 12 4 12 -15 0z"/>
<path d="M2520 1506 c0 -3 9 -10 20 -16 11 -6 20 -8 20 -6 0 3 -9 10 -20 16
-11 6 -20 8 -20 6z"/>
<path d="M2660 1462 c-37 -20 -92 -99 -112 -162 -6 -19 -13 -94 -15 -166 -4
-110 -2 -132 11 -143 14 -12 16 -6 16 56 0 119 49 271 117 361 14 18 27 31 30
28 3 -2 -6 -20 -20 -38 -65 -86 -104 -205 -114 -343 -5 -68 -3 -83 10 -88 11
-4 16 4 22 38 9 66 61 160 122 222 29 31 56 54 58 51 2 -2 -19 -29 -48 -59
-29 -31 -64 -78 -78 -105 -33 -60 -54 -153 -39 -168 7 -7 10 -5 10 5 0 38 64
145 130 214 39 41 70 83 70 94 0 22 -27 41 -59 41 -22 0 -95 -59 -74 -60 7 0
-5 -23 -26 -51 -21 -28 -46 -77 -56 -110 -23 -74 -31 -70 -14 8 7 32 13 76 13
98 2 46 98 254 119 255 12 0 8 -45 -5 -58 -7 -7 -8 -12 -4 -12 5 0 4 -6 -2
-12 -13 -18 -102 -185 -102 -193 0 -12 97 141 125 195 34 68 33 88 -10 106
-42 17 -34 18 -75 -4z m-9 -51 c-7 -5 -13 -12 -14 -17 -1 -15 -58 -134 -64
-134 -3 0 -2 17 2 38 9 51 69 141 84 126 3 -3 0 -9 -8 -13z m146 -169 c-10
-10 -14 -22 -10 -25 3 -4 1 -7 -5 -7 -6 0 -27 -16 -47 -37 -19 -20 -35 -33
-35 -29 0 8 11 21 68 79 37 38 59 52 29 19z m-230 -14 c-3 -8 -6 -5 -6 6 -1
11 2 17 5 13 3 -3 4 -12 1 -19z"/>
<path d="M199 1263 c-13 -16 -12 -17 4 -4 16 13 21 21 13 21 -2 0 -10 -8 -17
-17z"/>
<path d="M2846 1177 c3 -10 9 -15 12 -12 3 3 0 11 -7 18 -10 9 -11 8 -5 -6z"/>
<path d="M2870 1125 c0 -5 5 -17 10 -25 5 -8 10 -10 10 -5 0 6 -5 17 -10 25
-5 8 -10 11 -10 5z"/>
<path d="M101 1054 c0 -11 3 -14 6 -6 3 7 2 16 -1 19 -3 4 -6 -2 -5 -13z"/>
<path d="M2903 945 c0 -44 2 -61 4 -37 2 23 2 59 0 80 -2 20 -4 1 -4 -43z"/>
<path d="M93 945 c0 -38 2 -53 4 -32 2 20 2 52 0 70 -2 17 -4 1 -4 -38z"/>
<path d="M1265 890 c3 -19 10 -55 15 -80 8 -39 8 -37 3 20 -3 36 -9 72 -14 80
-6 10 -8 3 -4 -20z"/>
<path d="M1348 855 c-1 -36 -2 -79 -3 -95 -2 -24 6 -38 36 -64 20 -19 48 -40
61 -47 12 -7 -2 10 -32 38 l-55 51 3 91 c2 50 1 91 -2 91 -3 0 -7 -29 -8 -65z"/>
<path d="M1168 883 c12 -2 30 -2 40 0 9 3 -1 5 -23 4 -22 0 -30 -2 -17 -4z"/>
<path d="M1001 777 c3 -40 1 -116 -4 -169 -11 -109 -2 -148 38 -166 29 -13 54
6 56 41 3 48 -3 134 -11 167 -7 26 -8 13 -7 -55 2 -88 1 -90 -22 -93 -13 -2
-27 2 -32 10 -5 7 -7 81 -6 165 1 90 -2 156 -8 162 -7 7 -8 -14 -4 -62z"/>
<path d="M1082 814 c-17 -68 -24 -120 -14 -109 10 11 34 136 27 143 -2 2 -8
-13 -13 -34z"/>
<path d="M885 820 c-3 -6 1 -7 9 -4 18 7 21 14 7 14 -6 0 -13 -4 -16 -10z"/>
<path d="M111 810 c0 -8 4 -22 9 -30 12 -18 12 -2 0 25 -6 13 -9 15 -9 5z"/>
<path d="M1550 803 c14 -9 46 -38 73 -64 26 -25 47 -43 47 -39 0 11 -94 96
-121 109 l-24 12 25 -18z"/>
<path d="M818 776 c-24 -19 -52 -46 -61 -60 -29 -43 -19 -41 13 2 17 23 33 42
38 42 9 1 69 50 61 50 -3 0 -26 -15 -51 -34z"/>
<path d="M130 754 c0 -6 7 -19 16 -30 14 -18 14 -18 3 6 -14 31 -19 36 -19 24z"/>
<path d="M2847 725 c-9 -19 -15 -35 -12 -35 7 0 37 61 33 66 -3 2 -12 -12 -21
-31z"/>
<path d="M1270 700 c0 -50 1 -51 43 -70 23 -11 62 -31 86 -45 53 -30 81 -31
111 -7 l23 19 -23 16 c-15 10 -33 14 -52 10 -24 -5 -42 3 -99 42 -44 30 -69
54 -69 66 0 10 -4 19 -10 19 -5 0 -10 -23 -10 -50z"/>
<path d="M175 670 c15 -27 95 -129 108 -136 10 -7 -7 21 -23 36 -3 3 -21 25
-40 50 -39 53 -57 72 -45 50z"/>
<path d="M1678 615 c5 -53 -28 -117 -80 -160 -18 -15 -24 -22 -13 -17 54 27
105 111 105 175 0 26 -3 47 -8 47 -4 0 -6 -20 -4 -45z"/>
<path d="M2774 613 c-15 -20 -23 -33 -16 -29 13 8 56 66 49 66 -3 0 -17 -17
-33 -37z"/>
<path d="M722 615 c0 -16 2 -22 5 -12 2 9 2 23 0 30 -3 6 -5 -1 -5 -18z"/>
<path d="M2700 535 c-11 -13 -10 -14 4 -9 9 3 16 10 16 15 0 13 -6 11 -20 -6z"/>
<path d="M746 530 c17 -35 47 -71 67 -81 16 -9 13 -3 -10 22 -18 19 -40 43
-49 54 -8 11 -12 13 -8 5z"/>
<path d="M2635 474 c-30 -27 -32 -31 -9 -16 28 19 62 53 53 52 -2 -1 -22 -17
-44 -36z"/>
<path d="M334 492 c8 -13 66 -56 66 -49 0 3 -17 17 -37 33 -20 15 -33 23 -29
16z"/>
<path d="M1534 414 c-18 -14 -18 -15 4 -4 12 6 22 13 22 15 0 8 -5 6 -26 -11z"/>
<path d="M1465 385 c-16 -7 -23 -14 -15 -14 8 0 26 6 40 14 32 18 14 18 -25 0z"/>
<path d="M500 376 c0 -2 7 -7 16 -10 8 -3 12 -2 9 4 -6 10 -25 14 -25 6z"/>
<path d="M965 370 c11 -5 27 -9 35 -9 9 0 8 4 -5 9 -11 5 -27 9 -35 9 -9 0 -8
-4 5 -9z"/>
<path d="M2457 361 c-41 -26 -46 -36 -10 -17 17 9 35 20 38 26 8 13 6 12 -28
-9z"/>
<path d="M1045 350 c17 -6 75 -12 130 -14 97 -5 98 -5 20 3 -44 4 -102 11
-130 14 -40 5 -44 4 -20 -3z"/>
<path d="M1330 350 l-25 -8 25 0 c14 0 36 4 50 8 l25 8 -25 0 c-14 0 -36 -4
-50 -8z"/>
<path d="M660 295 c14 -8 30 -14 35 -14 6 0 -1 6 -15 14 -14 8 -29 14 -35 14
-5 0 1 -6 15 -14z"/>
<path d="M2335 300 c-3 -6 1 -7 9 -4 18 7 21 14 7 14 -6 0 -13 -4 -16 -10z"/>
<path d="M2232 263 c-24 -8 -41 -17 -39 -19 4 -5 97 26 97 32 0 6 -11 4 -58
-13z"/>
<path d="M770 257 c0 -3 15 -10 32 -16 18 -6 28 -7 23 -2 -12 10 -55 25 -55
18z"/>
<path d="M847 229 c7 -7 15 -10 18 -7 3 3 -2 9 -12 12 -14 6 -15 5 -6 -5z"/>
<path d="M885 220 c3 -4 14 -10 25 -13 11 -3 18 -2 15 3 -3 4 -14 10 -25 13
-11 3 -18 2 -15 -3z"/>
<path d="M2073 217 c-24 -6 -43 -14 -43 -18 0 -9 71 10 85 22 5 5 7 8 5 8 -3
-1 -24 -7 -47 -12z"/>
<path d="M975 195 c22 -8 51 -13 65 -13 14 0 0 6 -30 13 -69 18 -88 17 -35 0z"/>
<path d="M1998 193 c7 -3 16 -2 19 1 4 3 -2 6 -13 5 -11 0 -14 -3 -6 -6z"/>
<path d="M1088 173 c7 -3 16 -2 19 1 4 3 -2 6 -13 5 -11 0 -14 -3 -6 -6z"/>
<path d="M1898 173 c7 -3 16 -2 19 1 4 3 -2 6 -13 5 -11 0 -14 -3 -6 -6z"/>
<path d="M1138 163 c6 -2 18 -2 25 0 6 3 1 5 -13 5 -14 0 -19 -2 -12 -5z"/>
<path d="M1838 163 c7 -3 16 -2 19 1 4 3 -2 6 -13 5 -11 0 -14 -3 -6 -6z"/>
<path d="M1218 153 c6 -2 18 -2 25 0 6 3 1 5 -13 5 -14 0 -19 -2 -12 -5z"/>
<path d="M1758 153 c6 -2 18 -2 25 0 6 3 1 5 -13 5 -14 0 -19 -2 -12 -5z"/>
<path d="M1323 143 c15 -2 39 -2 55 0 15 2 2 4 -28 4 -30 0 -43 -2 -27 -4z"/>
<path d="M1633 143 c15 -2 37 -2 50 0 12 2 0 4 -28 4 -27 0 -38 -2 -22 -4z"/>
</g>
</svg>
