<svg width="475" height="284" viewBox="0 0 475 284" fill="none" xmlns="http://www.w3.org/2000/svg">
<g clip-path="url(#clip0)">
<path d="M363.671 280.788C357.59 275.649 353.896 267.531 354.865 259.629C355.833 251.726 361.833 244.46 369.616 242.782C377.399 241.104 386.271 245.75 388.635 253.353C389.936 238.694 391.435 223.422 399.228 210.939C406.284 199.636 418.505 191.548 431.751 190.101C444.996 188.654 458.942 194.119 467.203 204.574C475.463 215.029 477.486 230.229 471.7 242.232C467.438 251.074 459.586 257.655 451.359 263.008C424.774 280.162 392.889 287.138 361.571 282.652L363.671 280.788Z" fill="#F2F2F2"/>
<path d="M454.104 194.422C443.175 203.324 433.149 213.281 424.17 224.148C410.119 241.096 398.749 260.099 390.455 280.493C389.848 281.98 392.264 282.628 392.864 281.157C406.434 248.012 428.096 218.799 455.871 196.189C457.118 195.173 455.341 193.415 454.104 194.422Z" fill="white"/>
<path d="M152.91 279.392C161.263 272.334 166.336 261.184 165.006 250.329C163.675 239.474 155.434 229.496 144.745 227.191C134.055 224.886 121.87 231.266 118.623 241.709C116.836 221.576 114.777 200.599 104.074 183.454C94.3818 167.929 77.5955 156.821 59.4029 154.833C41.2104 152.846 22.056 160.352 10.7099 174.712C-0.636116 189.072 -3.41414 209.948 4.53232 226.435C10.3862 238.58 21.1711 247.618 32.471 254.971C68.5216 278.431 113.242 288.215 155.795 281.952" fill="#F2F2F2"/>
<path d="M28.7002 160.768C43.7113 172.995 57.4824 186.671 69.8144 201.596C82.1482 216.507 93.0069 232.578 102.238 249.585C107.397 259.126 112.032 268.94 116.122 278.986C116.956 281.029 113.638 281.919 112.813 279.898C105.569 262.188 96.6074 245.23 86.0556 229.269C75.5551 213.365 63.5367 198.517 50.1693 184.934C42.6086 177.255 34.6314 169.997 26.2739 163.194C24.5608 161.799 27.0013 159.384 28.7002 160.768L28.7002 160.768Z" fill="white"/>
<path d="M340.963 283.378H141.681V78.8982C141.681 35.3935 177.072 0 220.575 0H262.069C305.571 0 340.963 35.3935 340.963 78.8982V283.378Z" fill="#F2F2F2"/>
<path d="M299.468 283.378H141.681V78.8982C141.637 62.2282 146.916 45.9795 156.748 32.5179C157.11 32.0239 157.472 31.5363 157.844 31.054C162.6 24.8164 168.259 19.3231 174.635 14.7553C174.996 14.4932 175.357 14.2357 175.724 13.9781C181.06 10.2857 186.831 7.26723 192.907 4.99139C193.268 4.85463 193.635 4.71759 194.003 4.58615C199.498 2.62493 205.195 1.2815 210.987 0.580671C211.346 0.531612 211.715 0.493223 212.084 0.454833C217.729 -0.148763 223.422 -0.148763 229.067 0.454833C229.434 0.493223 229.803 0.531607 230.166 0.581196C235.957 1.28207 241.653 2.62533 247.146 4.58617C247.514 4.71761 247.881 4.85464 248.243 4.99168C254.244 7.23881 259.948 10.2123 265.227 13.8457C265.593 14.0976 265.96 14.3551 266.322 14.6127C269.896 17.164 273.253 20.0064 276.359 23.1107C278.85 25.6008 281.171 28.255 283.306 31.0556C283.678 31.5363 284.039 32.0239 284.401 32.5171C294.233 45.9789 299.512 62.2279 299.468 78.8982V283.378Z" fill="#CCCCCC"/>
<path d="M286.638 191.922C291.462 191.922 295.374 188.011 295.374 183.186C295.374 178.361 291.462 174.45 286.638 174.45C281.813 174.45 277.902 178.361 277.902 183.186C277.902 188.011 281.813 191.922 286.638 191.922Z" fill="#253D7F"/>
<path d="M324.637 277.254H317.944L314.759 251.434L324.639 251.435L324.637 277.254Z" fill="#FFB8B8"/>
<path d="M313.162 275.341H326.071V283.469H305.034C305.034 282.402 305.245 281.345 305.653 280.359C306.062 279.373 306.66 278.477 307.415 277.722C308.17 276.967 309.066 276.368 310.052 275.96C311.038 275.551 312.095 275.341 313.162 275.341Z" fill="#2F2E41"/>
<path d="M357.942 277.254H351.248L348.064 251.434L357.943 251.435L357.942 277.254Z" fill="#FFB8B8"/>
<path d="M346.467 275.341H359.376V283.469H338.339C338.339 282.402 338.549 281.345 338.958 280.359C339.366 279.373 339.965 278.477 340.72 277.722C341.474 276.967 342.37 276.368 343.357 275.96C344.343 275.551 345.4 275.341 346.467 275.341Z" fill="#2F2E41"/>
<path d="M291.059 184.916C290.578 184.207 290.257 183.4 290.121 182.554C289.985 181.707 290.036 180.841 290.271 180.016C290.506 179.192 290.919 178.428 291.48 177.78C292.042 177.132 292.739 176.615 293.522 176.266L316.276 113.548L327.472 119.658L301.492 179.594C301.992 180.949 301.978 182.439 301.452 183.784C300.926 185.129 299.925 186.233 298.639 186.89C297.353 187.546 295.871 187.707 294.474 187.343C293.077 186.98 291.862 186.116 291.059 184.916Z" fill="#FFB8B8"/>
<path d="M354.523 196.701C353.779 196.275 353.138 195.691 352.644 194.989C352.15 194.288 351.817 193.487 351.666 192.643C351.515 191.799 351.552 190.932 351.772 190.103C351.993 189.275 352.393 188.505 352.943 187.847L345.894 121.502L358.636 122.084L361.566 187.343C362.609 188.341 363.25 189.687 363.367 191.126C363.484 192.565 363.069 193.997 362.201 195.151C361.332 196.304 360.071 197.099 358.656 197.385C357.241 197.671 355.77 197.428 354.523 196.701Z" fill="#FFB8B8"/>
<path d="M334.196 101.931C341.602 101.931 347.605 95.9267 347.605 88.5203C347.605 81.1138 341.602 75.1097 334.196 75.1097C326.79 75.1097 320.786 81.1138 320.786 88.5203C320.786 95.9267 326.79 101.931 334.196 101.931Z" fill="#FFB8B8"/>
<path d="M354.437 181.613H314.009L314.058 181.298C314.131 180.828 321.263 134.102 316.003 118.815C315.475 117.313 315.521 115.668 316.133 114.198C316.745 112.728 317.879 111.536 319.316 110.852H319.316C326.835 107.311 341.269 102.951 353.451 113.533C355.244 115.115 356.643 117.094 357.54 119.311C358.436 121.528 358.804 123.923 358.616 126.307L354.437 181.613Z" fill="#253D7F"/>
<path d="M321.774 141.007L303.573 137.314L312.104 117.096C312.615 115.137 313.881 113.462 315.626 112.436C317.37 111.41 319.45 111.118 321.41 111.624C323.369 112.13 325.048 113.392 326.078 115.134C327.108 116.876 327.405 118.956 326.904 120.916L321.774 141.007Z" fill="#253D7F"/>
<path d="M345.085 147.863L343.991 122.779C343.161 118.064 345.86 113.606 350.011 112.877C354.164 112.151 358.218 115.422 359.052 120.172L363.165 143.611L345.085 147.863Z" fill="#253D7F"/>
<path d="M353.092 178.609C359.597 203.386 360.307 234.886 358.552 269.247L349.816 268.155L333.983 202.634L325.247 269.247L315.42 268.701C312.484 232.648 309.625 201.697 314.328 181.34L353.092 178.609Z" fill="#2F2E41"/>
<path d="M343.031 98.8843C340.53 101.549 335.884 100.119 335.558 96.4779C335.532 96.1953 335.534 95.9108 335.563 95.6285C335.732 94.0159 336.663 92.5517 336.44 90.849C336.39 90.4252 336.232 90.0213 335.981 89.6757C333.988 87.0061 329.308 90.8697 327.427 88.453C326.273 86.9711 327.629 84.638 326.744 82.9817C325.576 80.7957 322.115 81.8741 319.945 80.6769C317.53 79.3449 317.674 75.6399 319.264 73.3863C321.202 70.6379 324.601 69.1713 327.958 68.96C331.314 68.7486 334.648 69.656 337.781 70.8772C341.341 72.2648 344.872 74.1825 347.063 77.3133C349.728 81.1207 349.984 86.2394 348.651 90.6915C347.841 93.3997 345.074 96.7081 343.031 98.8843Z" fill="#2F2E41"/>
<path d="M458.611 283.73H55.5191C55.347 283.729 55.1821 283.66 55.0606 283.539C54.9391 283.417 54.8709 283.252 54.8709 283.08C54.8709 282.907 54.9391 282.742 55.0606 282.621C55.1821 282.499 55.347 282.43 55.5191 282.429H458.611C458.783 282.43 458.948 282.499 459.069 282.621C459.191 282.742 459.259 282.907 459.259 283.08C459.259 283.252 459.191 283.417 459.069 283.539C458.948 283.66 458.783 283.729 458.611 283.73Z" fill="#3F3D56"/>
<path d="M256.063 224.136H185.086C184.151 224.141 183.253 223.775 182.588 223.119C181.922 222.462 181.545 221.568 181.537 220.634V62.1987C181.545 61.2639 181.922 60.3701 182.588 59.7135C183.253 59.0568 184.151 58.6908 185.086 58.6959H256.063C256.998 58.6908 257.897 59.0568 258.562 59.7135C259.227 60.3701 259.605 61.2639 259.612 62.1987V220.634C259.605 221.568 259.227 222.462 258.562 223.119C257.897 223.775 256.998 224.141 256.063 224.136Z" fill="white"/>
<path d="M259.612 109.96H181.537V111.052H259.612V109.96Z" fill="#CCCCCC"/>
<path d="M259.885 172.266H181.81V173.358H259.885V172.266Z" fill="#CCCCCC"/>
<path d="M207.198 58.6959H206.106V224.682H207.198V58.6959Z" fill="#CCCCCC"/>
<path d="M234.497 58.6959H233.405V224.682H234.497V58.6959Z" fill="#CCCCCC"/>
</g>
<defs>
<clipPath id="clip0">
<rect width="475" height="284" fill="white"/>
</clipPath>
</defs>
</svg>
